<svg width="1670" height="1670" viewBox="0 0 1670 1670" fill="none" xmlns="http://www.w3.org/2000/svg">
<g opacity="0.9">
<path d="M845.7 1236.86C593.5 1236.86 387.375 1031.14 387.375 777.65C387.375 524.966 593.5 318.445 845.7 318.445C1098.71 318.445 1304.02 524.156 1304.02 777.65C1304.02 1031.14 1098.71 1236.86 845.7 1236.86ZM845.7 324.114C595.925 324.114 393.033 527.395 393.033 777.65C393.033 1027.9 595.925 1231.19 845.7 1231.19C1095.47 1231.19 1298.37 1027.9 1298.37 777.65C1298.37 527.395 1095.47 324.114 845.7 324.114Z" fill="#017DC5"/>
</g>
<g opacity="0.9">
<path d="M809.325 1224.71C556.317 1224.71 351 1019 351 765.502C351 512.817 556.317 306.296 809.325 306.296C1062.33 306.296 1267.65 512.007 1267.65 765.502C1267.65 1019 1061.52 1224.71 809.325 1224.71ZM809.325 311.966C559.55 311.966 356.658 515.247 356.658 765.502C356.658 1015.76 559.55 1219.04 809.325 1219.04C1059.1 1219.04 1261.99 1015.76 1261.99 765.502C1261.99 515.247 1058.29 311.966 809.325 311.966Z" fill="#017DC5"/>
</g>
<g opacity="0.9">
<path d="M862.675 1200.41C609.667 1200.41 404.35 994.699 404.35 741.205C405.158 487.711 610.475 282 862.675 282C1115.68 282 1321 487.711 1321 741.205C1321 993.889 1115.68 1200.41 862.675 1200.41ZM862.675 287.669C612.9 287.669 410.008 490.95 410.008 741.205C410.008 991.46 612.9 1194.74 862.675 1194.74C1112.45 1194.74 1315.34 991.46 1315.34 741.205C1315.34 490.95 1112.45 287.669 862.675 287.669Z" fill="#017DC5"/>
</g>
<g opacity="0.9">
<path d="M852.975 1268.44C599.967 1268.44 394.65 1062.73 394.65 809.235C394.65 555.741 599.967 350.03 852.975 350.03C1105.98 350.03 1311.3 555.741 1311.3 809.235C1311.3 1062.73 1105.98 1268.44 852.975 1268.44ZM852.975 356.509C603.2 356.509 400.308 559.79 400.308 810.045C400.308 1060.3 603.2 1263.58 852.975 1263.58C1102.75 1263.58 1305.64 1060.3 1305.64 810.045C1305.64 559.79 1102.75 356.509 852.975 356.509Z" fill="#017DC5"/>
</g>
<g opacity="0.9">
<path d="M804.475 1256.29C562.783 1256.29 366.358 1059.49 366.358 817.334C366.358 575.179 562.783 378.376 804.475 378.376C1046.17 378.376 1242.59 575.179 1242.59 817.334C1242.59 1059.49 1046.17 1256.29 804.475 1256.29ZM804.475 384.046C566.016 384.046 372.016 578.418 372.016 817.334C372.016 1056.25 566.016 1250.62 804.475 1250.62C1042.93 1250.62 1236.93 1056.25 1236.93 817.334C1236.93 578.418 1042.93 384.046 804.475 384.046Z" fill="#017DC5"/>
</g>
<path opacity="0.9" d="M833.575 1134C1028.22 1134 1186.01 975.907 1186.01 780.889C1186.01 585.872 1028.22 427.779 833.575 427.779C638.932 427.779 481.142 585.872 481.142 780.889C481.142 975.907 638.932 1134 833.575 1134Z" fill="#017DC5"/>
<path d="M1175.53 757.037C1173.36 745.799 1167.19 743.987 1150.86 750.149C1144.33 752.687 1138.89 759.574 1133.45 771.899C1124.74 791.474 1120.02 794.736 1120.02 781.686C1120.02 769.724 1110.23 757.399 1100.43 757.399C1091 757.399 1075.03 772.624 1068.86 788.211C1066.69 794.011 1064.15 818.661 1063.79 842.585C1062.7 892.247 1052.54 937.921 1039.11 952.421C1028.59 964.021 1002.11 975.983 993.036 973.083C989.407 971.996 982.151 966.196 977.072 960.034C968.364 949.884 968.364 948.796 973.443 936.834C978.16 925.234 978.16 922.697 972.718 911.459C964.736 894.785 947.683 880.647 935.348 880.647C918.295 880.647 902.331 888.26 896.889 899.135C886.73 918.709 891.084 936.834 911.039 959.671C917.569 966.921 918.658 973.446 919.021 1011.51C919.746 1052.11 920.109 1055.37 929.18 1066.97C939.701 1081.11 959.656 1096.33 962.922 1093.07C964.01 1091.98 956.754 1082.19 946.595 1071.32L927.728 1051.38V1017.67C927.728 985.046 920.472 944.446 912.853 936.834C910.676 935.021 909.587 935.384 909.587 938.646C909.225 942.634 907.773 942.271 904.145 937.196C885.279 912.184 918.658 877.022 946.958 892.247C962.922 900.585 974.169 926.684 966.913 938.284C964.736 941.909 964.01 948.796 965.099 953.509C966.187 958.221 967.276 963.659 967.276 965.471C966.913 971.271 987.593 982.146 999.566 982.146C1019.52 982.146 1042.38 966.196 1053.63 944.084C1060.88 930.672 1072.86 876.66 1072.86 858.173C1072.86 847.298 1073.94 845.123 1078.66 846.935C1083.74 848.748 1083.74 847.66 1078.3 837.148C1065.96 813.586 1079.39 764.649 1097.89 764.649C1126.55 764.649 1125.46 891.885 1096.08 930.672C1090.27 937.921 1084.47 944.446 1083.01 945.171C1075.76 948.434 1081.2 953.146 1091.72 952.784C1098.25 952.421 1100.79 951.696 1097.53 950.609C1092.45 949.159 1095.35 942.996 1114.58 915.084C1141.43 875.572 1145.06 863.248 1136.71 833.885C1129.82 809.598 1129.46 792.561 1134.9 781.686C1141.79 768.636 1157.39 753.774 1164.29 753.774C1174.08 753.774 1172.63 769.724 1162.11 780.961C1148.32 795.824 1147.23 808.511 1157.76 828.086C1165.01 841.135 1167.19 849.473 1167.19 867.235C1167.19 894.06 1159.93 911.097 1138.53 936.834C1126.55 951.334 1121.47 954.959 1113.49 954.234C1103.7 953.509 1114.22 957.134 1165.37 971.996C1185.33 977.796 1194.04 982.508 1205.28 994.471C1213.27 1002.45 1221.61 1012.6 1224.15 1016.58C1226.33 1020.57 1228.5 1022.02 1228.5 1019.85C1228.87 1017.67 1224.88 1009.7 1219.8 1002.45L1211.09 989.396L1220.16 983.596C1228.87 977.796 1229.59 977.796 1237.94 985.771C1243.02 990.483 1247.01 992.658 1247.01 990.483C1247.01 988.671 1243.74 983.958 1240.12 980.696C1233.22 974.533 1233.58 974.171 1242.29 958.221C1247.37 949.521 1253.18 942.271 1254.99 942.271C1257.17 942.271 1256.08 939.009 1252.09 934.659C1239.75 920.884 1247.01 869.047 1263.34 855.273C1267.69 851.648 1270.95 851.648 1277.49 854.548C1286.19 858.173 1286.19 859.985 1287.64 904.934C1289.1 959.671 1284.74 977.796 1261.52 1020.93C1242.65 1055.01 1237.21 1061.89 1228.14 1061.89C1215.81 1061.89 1165.74 1091.26 1141.79 1112.64C1126.55 1126.42 1083.38 1145.27 1067.41 1145.27C1056.89 1145.27 1054.35 1146.36 1058.34 1148.89C1061.25 1150.71 1071.04 1152.52 1079.75 1152.52C1097.89 1152.52 1113.13 1144.91 1158.12 1112.28C1174.08 1100.68 1199.84 1085.46 1215.08 1078.21C1244.47 1064.07 1252.09 1056.82 1271.32 1022.02C1296.71 975.621 1301.43 948.434 1294.9 879.56C1292.72 857.81 1291.27 854.185 1282.56 848.748C1273.49 843.31 1271.68 843.31 1260.07 849.11C1250.27 853.46 1246.65 858.173 1243.74 868.685C1237.94 891.885 1235.4 923.422 1239.03 930.309C1244.47 940.821 1237.21 958.946 1222.7 970.908C1207.1 983.596 1204.56 984.321 1193.31 976.346L1185.33 970.908L1192.59 960.396C1221.61 919.797 1224.88 882.097 1205.65 813.586C1195.13 776.249 1192.59 770.086 1185.69 768.999C1180.25 768.274 1176.98 764.286 1175.53 757.037ZM1161.38 795.461C1163.92 791.474 1171.18 785.311 1176.98 782.049L1187.51 775.524L1199.12 816.486C1215.44 873.76 1215.44 874.122 1210.73 896.96C1207.1 914.359 1187.51 955.684 1178.44 965.109C1175.53 967.646 1134.53 958.221 1134.53 954.959C1134.53 954.234 1143.61 940.821 1154.85 925.234C1174.81 897.685 1174.81 896.96 1173.72 874.485C1172.63 854.185 1173.36 851.648 1179.89 850.923C1186.42 849.835 1186.42 849.11 1176.26 838.96C1161.75 824.098 1155.22 805.248 1161.38 795.461ZM1123.65 855.998C1123.65 834.248 1129.09 830.623 1132 850.56C1133.81 859.985 1132 867.96 1127.28 878.472C1122.56 887.897 1120.75 890.072 1121.84 884.272C1122.56 879.197 1123.65 866.51 1123.65 855.998Z" fill="#F7F9FD"/>
<path d="M1158.12 1025.64C1165.37 1022.38 1067.78 1024.19 1044.92 1027.82C1022.06 1031.08 996.301 1063.34 997.027 1087.27C997.389 1095.97 997.389 1095.97 1001.02 1085.46C1008.64 1064.43 1023.88 1045.58 1040.2 1037.24C1054.35 1030.36 1061.97 1029.27 1103.7 1028.91C1129.46 1028.91 1154.13 1027.46 1158.12 1025.64Z" fill="#F7F9FD"/>
<path d="M810.642 558.322C809.815 551.452 806.53 544.228 802.936 542.153C799.341 540.077 766.627 537.705 730.301 536.977C659.94 535.244 643.361 532.597 581.934 516.311C533.136 503.055 522.442 502.208 541.383 513.676C576.532 533.969 691.325 552.831 752.961 548.461C773.338 546.374 792.331 546.685 795.127 548.299C801.517 551.989 803.783 569.279 803.533 611.222C803.11 628.558 807.872 662.739 813.823 687.485C820.004 711.83 823.158 734.961 821.082 738.557C816.007 747.348 780.918 763.848 774.927 760.389C764.542 754.394 773.023 627.17 785.239 595.865C789.284 587.013 787.411 583.8 774.523 574.761C765.798 568.658 753.292 563.569 746.716 562.968C735.222 561.66 735.622 561.891 749.326 567.672C776.104 579.403 784.581 589.625 777.43 602.011C763.589 625.985 756.304 692.101 761.859 740.592L765.441 770.362L750.026 775.846C739.483 779.349 732.276 778.917 729.205 775.013C723.231 767.835 725.485 713.198 733.589 667.799C736.87 651.047 737.214 638.46 734.8 640.796C726.069 648.54 712.849 724.016 714.832 752.864C717.109 780.283 716.524 783.141 706.256 788.934C694.037 796.263 676.748 798.534 675.629 793.094C675.123 791.203 682.742 764.17 692.899 732.742C702.656 701.083 709.415 674.619 707.417 673.466C702.225 670.468 680.303 722.274 672.481 756.115C669.032 772.237 664.322 788.696 662.245 792.292C657.401 800.683 624.794 799.97 600.351 790.653C575.907 781.335 546.818 749.624 544.108 729.413L541.549 713.552L554.517 717.842C563.028 720.625 568.496 725.913 570.92 733.705C576.23 748.491 588.302 760.789 593.866 757.608C596.218 756.302 593.9 750.169 588.894 744.082C583.257 738.164 580.141 731.571 581.064 729.972C581.987 728.374 592.574 727.561 604.467 729.1C619.049 730.593 623.859 729.641 619.758 725.675C616.625 722.801 607.883 720.417 600.845 720.616C579.27 722.011 528.988 695.644 497.255 666.668C474.354 645.455 468.841 637.478 463.61 617.943C460.067 604.709 459.275 590.401 461.812 586.006C464.581 581.211 465.352 575.263 464.047 572.911C462.573 569.93 458.207 573.802 453.593 581.793C436.523 611.36 472.006 670.737 524.729 701.177C535.513 707.403 537.555 711.246 535.383 723.31C528.849 763.222 606.869 816.259 657.828 807.322C667.848 805.649 676.776 804.943 678.773 806.096C683.965 809.094 710.261 801.368 713.491 795.774C715.336 792.578 725.187 790.274 735.313 790.26C755.167 790.002 771.505 782.92 771.201 774.221C771.157 771.531 775.86 768.919 781.469 768.428C798.527 766.556 822.381 754.757 827.456 745.966C829.993 741.571 828.898 718.564 824.483 695.77C820.299 672.578 815.722 635.307 813.997 612.468C812.671 589.86 810.838 565.361 810.642 558.322Z" fill="#F7F9FD"/>
<mask id="mask0_1_895" style="mask-type:alpha" maskUnits="userSpaceOnUse" x="641" y="708" width="354" height="353">
<path d="M991.421 709.673C982.598 715.257 936.929 746.939 921.36 758.365C879.584 788.618 833.916 824.973 790.715 862.234L780.725 870.803L780.728 877.941C780.601 885.208 776.581 894.683 773.078 895.853C772.169 896.112 766.198 891.183 759.836 884.956L748.152 873.54L742.963 878.604C740.109 881.46 737.774 884.056 737.774 884.705C737.775 885.224 742.449 892.49 748.163 900.923C753.876 909.356 758.55 916.882 758.551 917.79C758.551 918.698 759.2 919.477 759.979 919.477C761.017 919.476 761.017 919.995 759.85 921.294C759.072 922.332 757.644 922.981 756.866 922.592C755.957 922.333 754.53 923.242 753.622 924.67C752.195 927.006 752.325 927.266 755.569 927.265C758.554 927.393 758.295 927.653 753.364 929.342C750.12 930.511 746.357 932.589 744.93 934.017C742.336 936.484 742.336 936.484 746.229 935.704L750.122 934.924L745.581 937.391C743.115 938.819 740.52 939.729 739.741 939.47C739.092 939.21 737.536 940.379 736.238 941.937C734.163 944.922 734.163 944.922 738.186 944.531C742.079 944.011 742.079 944.141 737.278 945.959C734.423 946.999 731.828 947.648 731.439 947.389C731.049 947.259 729.622 948.428 728.325 950.115L725.861 953.361L729.624 952.581C733.127 951.801 732.998 951.931 728.716 954.268C726.251 955.697 723.656 956.606 722.877 956.347C722.228 956.087 720.671 957.256 719.374 958.814C717.298 961.799 717.298 961.799 721.321 961.408C725.214 960.888 725.214 961.018 720.413 962.836C717.559 963.876 714.963 964.525 714.574 964.396C714.185 964.136 712.368 965.694 710.682 967.901C707.699 971.536 707.699 971.666 710.164 970.237C711.721 969.458 713.797 968.808 714.706 968.808C715.614 968.938 714.317 969.976 711.851 971.275C709.386 972.574 706.791 973.483 706.012 973.224C705.363 972.964 703.806 974.133 702.509 975.691C700.434 978.676 700.434 978.676 704.457 978.286C708.35 977.765 708.35 977.895 703.549 979.713C700.694 980.753 698.099 981.402 697.709 981.143C697.32 981.013 695.893 982.182 694.596 983.87L692.131 987.115L695.895 986.335C699.398 985.555 699.268 985.685 694.987 988.022C692.522 989.451 689.926 990.36 689.148 990.101C688.499 989.841 686.942 991.01 685.645 992.568C683.569 995.553 683.569 995.553 687.592 995.163C691.096 994.772 690.837 995.032 685.906 996.85C682.662 997.89 678.899 1000.1 677.472 1001.53C674.877 1003.99 674.877 1003.99 678.77 1003.21L682.663 1002.43L678.122 1005.03C675.657 1006.33 673.321 1007.11 672.932 1006.59C672.542 1005.94 670.855 1005.16 669.038 1004.77C667.221 1004.38 664.625 1003.74 663.197 1003.22C661.121 1002.7 658.526 1004.65 650.872 1012.31L641.142 1022.04L659.318 1040.33C669.314 1050.32 678.532 1059.15 679.83 1059.79C681.777 1060.96 683.723 1059.53 691.506 1052L700.847 1042.92L698.639 1037.08L696.43 1031.11L708.365 1019.29C716.668 1010.98 719.003 1008 716.148 1009.56C710.569 1012.41 707.195 1012.16 699.277 1008.4C690.97 1004.63 690.32 1003.21 697.978 1005.93C702.91 1007.75 710.957 1008.26 717.705 1007.35C719.132 1007.09 722.376 1005.01 724.841 1002.68C728.473 999.171 728.732 998.781 725.878 1000.6C721.077 1003.59 714.848 1003.33 707.579 999.957C699.792 996.326 700.31 995.547 708.617 998.14C714.328 999.825 718.87 999.953 727.694 998.262C728.862 998.002 742.094 985.539 757.143 970.479L784.385 942.957L800.741 953.982C809.698 959.948 817.486 964.877 818.006 964.877C818.654 964.876 821.249 962.539 824.103 959.683L829.162 954.49L817.868 942.945C810.078 935.161 806.832 930.75 807.351 929.452C808.647 926.077 818.509 922.05 825.517 922.048L831.876 922.046L842.123 910.102C888.434 856.747 938.373 791.711 979.36 731.221C996.74 705.519 996.092 706.687 991.421 709.673ZM972.743 736.414C935.647 790.415 888.821 851.816 852.37 894.266C829.539 920.619 830.966 919.45 824.348 919.453C820.454 919.454 816.043 920.754 810.593 923.611L802.678 927.637L798.784 924.004C796.577 921.929 794.889 919.593 794.888 918.815C794.888 918.166 801.634 910.766 809.936 902.587C826.412 886.1 876.226 833.782 886.993 821.449C890.755 817.165 895.944 810.415 898.538 806.391C903.207 799.381 979.875 720.838 982.081 720.838C983.379 720.837 982.99 721.486 972.743 736.414ZM944.846 747.585C893.209 784.331 822.242 840.161 794.09 866.516C786.307 873.916 785.788 874.694 785.79 880.145C785.792 886.115 783.069 893.513 779.826 896.239C776.583 898.966 776.582 896.63 779.954 890.789C782.029 887.025 783.195 883.131 783.194 879.238C783.192 873.917 783.84 872.749 789.419 867.426C819.127 838.734 928.756 753.561 965.474 730.577L969.366 728.11L966.901 730.966C965.604 732.524 955.614 740.054 944.846 747.585ZM877.909 821.063C871.163 827.165 848.33 849.495 827.314 870.656C792.807 905.319 785.801 911.551 785.8 907.917C785.8 906.489 839.377 853.781 863.637 831.45C882.059 814.313 896.2 802.628 898.277 802.627C898.796 802.627 897.239 804.315 894.774 806.262C892.309 808.21 884.655 814.831 877.909 821.063ZM822.156 958.127C820.599 959.685 818.523 960.983 817.485 960.984C815.409 960.984 781.269 938.416 775.687 933.357L772.831 930.633L779.577 923.752C783.339 919.987 786.842 916.871 787.361 916.871C788.529 916.871 824.749 953.065 824.75 954.362C824.75 954.881 823.583 956.569 822.156 958.127ZM777.637 943.868C774.393 944.258 759.856 938.683 759.856 937.126C759.856 936.737 762.322 937.385 765.307 938.422C768.422 939.459 773.354 940.366 776.468 940.494C782.568 940.622 783.477 943.217 777.637 943.868ZM770.892 952.046C766.35 952.307 763.625 951.789 757.654 949.196C749.996 945.955 751.034 944.916 759.211 947.508C765.57 949.453 772.189 949.45 777.379 947.502C779.455 946.722 779.326 946.982 776.731 949.189C774.915 950.617 772.32 951.916 770.892 952.046ZM766.482 958.796C761.422 961.783 757.918 961.525 749.871 957.764C741.564 954.004 740.914 952.576 748.572 955.299C755.451 957.892 765.444 958.148 768.168 955.941C769.336 954.902 770.244 954.772 770.245 955.421C770.245 956.07 768.558 957.498 766.482 958.796ZM754.028 968.923C749.356 969.185 746.371 968.667 740.53 966.073C733.131 962.832 734.169 961.923 742.346 964.386C748.706 966.33 755.324 966.327 760.515 964.379C762.591 963.599 762.461 963.859 759.866 966.066C758.05 967.494 755.455 968.793 754.028 968.923ZM749.488 975.933C744.298 978.66 740.924 978.402 733.006 974.641C724.699 970.881 724.05 969.454 731.707 972.176C738.327 974.639 748.839 974.895 751.433 972.688C752.731 971.649 753.38 971.519 753.38 972.557C753.38 973.336 751.694 974.764 749.488 975.933ZM734.567 985.672C729.766 985.673 717.306 981.136 718.473 979.838C718.862 979.578 721.977 980.226 725.482 981.263C731.711 983.207 737.941 983.075 743.65 981.126C745.726 980.347 745.597 980.736 743.002 982.943C740.926 984.631 737.942 985.67 734.567 985.672ZM732.623 992.81C727.433 995.537 724.059 995.279 716.141 991.518C707.834 987.758 707.185 986.331 714.843 989.053C721.592 991.516 731.844 991.772 734.439 989.565C735.866 988.526 736.515 988.396 736.515 989.434C736.516 990.213 734.829 991.641 732.623 992.81ZM701.487 1019.43C696.815 1019.43 683.576 1014.76 684.874 1013.59C685.133 1013.33 688.248 1013.98 691.752 1015.02C698.112 1016.96 704.731 1016.96 709.921 1015.01C712.127 1014.1 712.127 1014.36 709.402 1016.7C707.456 1018.39 704.602 1019.42 701.487 1019.43ZM698.894 1026.56C694.223 1029.03 693.704 1029.03 693.703 1026.57C693.703 1025.4 694.871 1024.62 696.687 1024.62C698.374 1024.62 700.321 1023.97 701.229 1023.06C702.396 1021.89 702.786 1021.89 702.786 1023.06C702.787 1023.84 701.1 1025.4 698.894 1026.56ZM689.948 1049.67C685.667 1053.82 681.516 1057.07 680.737 1057.07C679.18 1057.07 663.86 1041.76 663.86 1040.2C663.86 1039.81 665.546 1037.74 667.751 1035.66L671.643 1031.9L681.637 1034.23C691.631 1036.56 697.601 1039.15 697.602 1041.36C697.602 1041.88 694.1 1045.64 689.948 1049.67Z" fill="#F7F9FD"/>
</mask>
<g mask="url(#mask0_1_895)">
<rect x="496.975" y="848.3" width="360.776" height="293.293" fill="#F7F9FD"/>
</g>
<mask id="mask1_1_895" style="mask-type:alpha" maskUnits="userSpaceOnUse" x="689" y="641" width="354" height="353">
<path d="M1039.44 643.488C1030.62 649.072 984.946 680.754 969.378 692.18C927.601 722.433 881.933 758.787 838.732 796.049L828.742 804.618L828.745 811.755C828.618 819.023 824.598 828.498 821.095 829.667C820.187 829.927 814.215 824.998 807.854 818.771L796.17 807.355L790.981 812.418C788.127 815.274 785.792 817.871 785.792 818.52C785.792 819.039 790.467 826.304 796.18 834.738C801.893 843.171 806.568 850.696 806.568 851.605C806.568 852.513 807.218 853.292 807.996 853.291C809.035 853.291 809.035 853.81 807.867 855.108C807.089 856.147 805.662 856.796 804.883 856.407C803.974 856.148 802.547 857.057 801.639 858.485C800.213 860.821 800.342 861.081 803.587 861.08C806.572 861.208 806.312 861.468 801.381 863.157C798.137 864.326 794.375 866.404 792.948 867.832C790.353 870.298 790.353 870.298 794.246 869.518L798.139 868.738L793.598 871.206C791.133 872.634 788.537 873.544 787.759 873.284C787.11 873.025 785.553 874.194 784.256 875.751C782.18 878.737 782.18 878.737 786.203 878.346C790.096 877.826 790.096 877.955 785.295 879.774C782.441 880.813 779.845 881.463 779.456 881.204C779.067 881.074 777.64 882.243 776.342 883.93L773.878 887.175L777.641 886.395C781.145 885.615 781.015 885.745 776.733 888.083C774.268 889.511 771.673 890.421 770.894 890.161C770.245 889.902 768.688 891.071 767.391 892.628C765.316 895.614 765.316 895.614 769.339 895.223C773.232 894.703 773.232 894.832 768.431 896.651C765.576 897.69 762.981 898.34 762.591 898.211C762.202 897.951 760.386 899.509 758.699 901.716C755.716 905.351 755.716 905.48 758.181 904.052C759.738 903.273 761.814 902.623 762.723 902.623C763.631 902.752 762.334 903.791 759.869 905.09C757.403 906.388 754.808 907.298 754.03 907.038C753.381 906.779 751.824 907.948 750.527 909.505C748.451 912.491 748.451 912.491 752.474 912.1C756.367 911.58 756.367 911.709 751.566 913.528C748.711 914.567 746.116 915.217 745.727 914.958C745.337 914.828 743.91 915.997 742.613 917.684L740.149 920.93L743.912 920.15C747.416 919.37 747.286 919.499 743.004 921.837C740.539 923.265 737.944 924.175 737.165 923.916C736.516 923.656 734.959 924.825 733.662 926.383C731.587 929.368 731.587 929.368 735.609 928.977C739.113 928.587 738.854 928.846 733.923 930.665C730.679 931.704 726.916 933.912 725.489 935.34C722.895 937.807 722.895 937.807 726.788 937.027L730.681 936.247L726.14 938.844C723.674 940.142 721.339 940.922 720.949 940.403C720.56 939.754 718.872 938.976 717.055 938.588C715.238 938.199 712.642 937.551 711.215 937.032C709.138 936.514 706.543 938.462 698.889 946.121L689.16 955.858L707.335 974.15C717.332 984.139 726.549 992.96 727.847 993.608C729.794 994.776 731.74 993.347 739.524 985.818L748.864 976.73L746.656 970.891L744.448 964.922L756.383 953.108C764.685 944.799 767.02 941.813 764.165 943.372C758.586 946.229 755.212 945.971 747.294 942.21C738.987 938.45 738.338 937.022 745.996 939.745C750.928 941.56 758.974 942.076 765.722 941.165C767.149 940.905 770.393 938.827 772.858 936.491C776.49 932.985 776.75 932.596 773.895 934.414C769.095 937.4 762.865 937.143 755.597 933.772C747.809 930.141 748.328 929.362 756.634 931.954C762.345 933.639 766.887 933.767 775.711 932.077C776.879 931.817 790.112 919.354 805.16 904.294L832.403 876.772L848.759 887.797C857.715 893.763 865.504 898.692 866.023 898.691C866.672 898.691 869.266 896.354 872.12 893.498L877.18 888.305L865.885 876.759C858.096 868.976 854.849 864.564 855.368 863.267C856.665 859.892 866.526 855.865 873.534 855.863L879.893 855.86L890.141 843.917C936.451 790.562 986.391 725.526 1027.38 665.035C1044.76 639.333 1044.11 640.502 1039.44 643.488ZM1020.76 670.229C983.665 724.229 936.839 785.631 900.387 828.081C877.556 854.434 878.984 853.265 872.365 853.268C868.472 853.269 864.06 854.568 858.61 857.425L850.696 861.451L846.801 857.819C844.594 855.744 842.906 853.408 842.906 852.63C842.905 851.981 849.651 844.581 857.954 836.402C874.429 819.914 924.244 767.596 935.01 755.264C938.772 750.98 943.961 744.229 946.555 740.205C951.224 733.196 1027.89 654.653 1030.1 654.652C1031.4 654.652 1031.01 655.301 1020.76 670.229ZM992.863 681.4C941.226 718.146 870.259 773.975 842.108 800.33C834.324 807.73 833.805 808.509 833.807 813.96C833.809 819.929 831.087 827.328 827.843 830.054C824.6 832.781 824.599 830.445 827.971 824.604C830.046 820.839 831.213 816.946 831.211 813.052C831.209 807.732 831.858 806.563 837.436 801.24C867.144 772.549 976.773 687.376 1013.49 664.392L1017.38 661.925L1014.92 664.781C1013.62 666.338 1003.63 673.869 992.863 681.4ZM925.926 754.878C919.18 760.98 896.348 783.31 875.332 804.471C840.824 839.134 833.819 845.365 833.817 841.732C833.817 840.304 887.395 787.595 911.654 765.265C930.076 748.128 944.218 736.443 946.294 736.442C946.813 736.442 945.256 738.13 942.791 740.077C940.326 742.025 932.672 748.646 925.926 754.878ZM870.173 891.941C868.616 893.499 866.54 894.798 865.502 894.798C863.426 894.799 829.287 872.231 823.704 867.172L820.848 864.447L827.594 857.567C831.356 853.802 834.859 850.686 835.378 850.686C836.546 850.685 872.767 886.879 872.767 888.177C872.767 888.696 871.6 890.384 870.173 891.941ZM825.655 877.683C822.411 878.073 807.874 872.498 807.873 870.941C807.873 870.552 810.339 871.199 813.324 872.237C816.439 873.274 821.371 874.18 824.486 874.309C830.585 874.436 831.494 877.032 825.655 877.683ZM818.91 885.861C814.367 886.122 811.642 885.604 805.671 883.011C798.013 879.769 799.051 878.731 807.228 881.323C813.588 883.267 820.206 883.265 825.397 881.316C827.473 880.537 827.343 880.797 824.748 883.004C822.932 884.432 820.337 885.731 818.91 885.861ZM814.5 892.611C809.439 895.598 805.935 895.339 797.888 891.579C789.581 887.818 788.932 886.391 796.589 889.114C803.468 891.707 813.461 891.962 816.186 889.755C817.353 888.717 818.262 888.587 818.262 889.235C818.262 889.884 816.576 891.312 814.5 892.611ZM802.045 902.738C797.373 902.999 794.388 902.481 788.547 899.888C781.149 896.646 782.187 895.738 790.363 898.2C796.723 900.145 803.342 900.142 808.532 898.194C810.608 897.414 810.478 897.674 807.884 899.881C806.067 901.309 803.472 902.608 802.045 902.738ZM797.505 909.748C792.315 912.475 788.941 912.217 781.023 908.456C772.716 904.696 772.067 903.268 779.725 905.991C786.344 908.454 796.856 908.71 799.451 906.503C800.748 905.464 801.397 905.334 801.397 906.372C801.398 907.151 799.711 908.579 797.505 909.748ZM782.585 919.486C777.783 919.488 765.323 914.951 766.49 913.652C766.88 913.393 769.995 914.04 773.499 915.077C779.729 917.022 785.958 916.89 791.667 914.941C793.744 914.161 793.614 914.551 791.019 916.758C788.943 918.446 785.959 919.485 782.585 919.486ZM780.641 926.625C775.451 929.352 772.077 929.094 764.159 925.333C755.852 921.573 755.202 920.145 762.86 922.868C769.609 925.331 779.862 925.587 782.456 923.38C783.884 922.341 784.532 922.211 784.533 923.249C784.533 924.028 782.847 925.456 780.641 926.625ZM749.504 953.24C744.833 953.242 731.594 948.575 732.891 947.406C733.15 947.147 736.265 947.795 739.77 948.831C746.129 950.776 752.748 950.773 757.938 948.825C760.144 947.915 760.144 948.175 757.42 950.512C755.474 952.2 752.619 953.239 749.504 953.24ZM746.912 960.379C742.241 962.846 741.721 962.847 741.721 960.381C741.72 959.213 742.888 958.434 744.705 958.433C746.392 958.432 748.338 957.783 749.246 956.874C750.414 955.706 750.803 955.706 750.804 956.873C750.804 957.652 749.117 959.21 746.912 960.379ZM737.966 983.482C733.685 987.637 729.533 990.883 728.754 990.883C727.197 990.883 711.878 975.576 711.877 974.018C711.877 973.629 713.563 971.552 715.769 969.475L719.661 965.71L729.654 968.042C739.648 970.374 745.619 972.968 745.619 975.174C745.62 975.693 742.117 979.458 737.966 983.482Z" fill="#F7F9FD"/>
</mask>
<g mask="url(#mask1_1_895)">
<rect x="865.538" y="641.957" width="263.445" height="176.495" fill="#F7F9FD"/>
</g>
<path d="M416.307 427.271L421.248 422.449C423.565 420.187 426.13 418.696 428.941 417.977C431.752 417.257 434.574 417.322 437.406 418.17C440.239 419.017 442.846 420.661 445.227 423.101C447.608 425.54 449.193 428.191 449.982 431.054C450.771 433.916 450.777 436.749 450 439.552C449.222 442.355 447.675 444.888 445.357 447.15L440.417 451.972C438.099 454.234 435.535 455.725 432.724 456.444C429.912 457.163 427.091 457.099 424.258 456.251C421.426 455.403 418.819 453.759 416.438 451.32C414.057 448.88 412.471 446.229 411.683 443.367C410.894 440.504 410.888 437.672 411.665 434.869C412.442 432.065 413.99 429.533 416.307 427.271ZM419.581 430.625C417.813 432.351 416.681 434.181 416.185 436.114C415.7 438.036 415.802 439.981 416.491 441.948C417.191 443.906 418.433 445.799 420.219 447.629C421.985 449.438 423.833 450.711 425.763 451.448C427.703 452.174 429.64 452.318 431.574 451.88C433.518 451.431 435.374 450.344 437.143 448.617L442.083 443.795C443.852 442.069 444.979 440.244 445.464 438.322C445.96 436.389 445.858 434.444 445.158 432.487C444.469 430.52 443.231 428.621 441.445 426.792C439.679 424.982 437.826 423.714 435.886 422.988C433.957 422.251 432.02 422.107 430.076 422.556C428.142 422.994 426.29 424.077 424.522 425.803L419.581 430.625ZM416.531 418.715L448.797 451.772L445.015 455.463L412.75 422.406L416.531 418.715Z" fill="white"/>
<path d="M466.557 432.741L438.443 399.368L458.584 382.401L461.604 385.986L445.504 399.549L455.004 410.825L470.061 398.141L473.081 401.726L458.024 414.41L467.579 425.752L483.939 411.969L486.959 415.554L466.557 432.741Z" fill="white"/>
<path d="M495.605 421.879L486.605 409.561L488.875 407.902C489.136 406.621 489.136 405.081 488.878 403.282C488.622 401.463 487.939 399.288 486.828 396.757C485.72 394.206 484.015 391.186 481.712 387.697L471.607 372.28L492.527 356.994L515.506 388.442L519.566 385.475L528.517 397.724L524.457 400.691L518.272 392.227L493.43 410.379L499.665 418.912L495.605 421.879ZM493.968 404.181L511.446 391.409L491.232 363.746L478.227 373.249L485.772 384.73C487.511 387.4 488.972 389.904 490.153 392.243C491.326 394.57 492.229 396.734 492.863 398.733C493.489 400.721 493.857 402.537 493.968 404.181Z" fill="white"/>
<path d="M529.109 384.987L505.98 347.984L528.312 334.026L530.797 338.001L512.946 349.159L520.761 361.662L537.455 351.227L539.94 355.202L523.245 365.637L531.105 378.212L549.245 366.874L551.73 370.849L529.109 384.987Z" fill="white"/>
<path d="M558.339 367.024L537.638 328.611L550.618 321.616C553.631 319.992 556.388 319.208 558.887 319.265C561.392 319.303 563.603 319.992 565.519 321.331C567.435 322.671 569.002 324.472 570.222 326.735C571.442 328.998 572.088 331.305 572.16 333.654C572.244 335.997 571.626 338.234 570.306 340.365C568.979 342.484 566.822 344.349 563.833 345.959L554.53 350.973L552.306 346.846L561.459 341.914C563.523 340.802 564.987 339.552 565.854 338.166C566.72 336.779 567.108 335.328 567.017 333.812C566.931 332.276 566.474 330.74 565.646 329.202C564.817 327.664 563.788 326.443 562.559 325.54C561.343 324.63 559.918 324.172 558.284 324.165C556.644 324.145 554.779 324.698 552.691 325.823L544.513 330.23L562.991 364.517L558.339 367.024Z" fill="white"/>
<path d="M593.754 348.465L588.702 350.739L585.403 304.371L590.377 302.132L622.898 335.347L617.847 337.621L590.879 309.477L590.568 309.617L593.754 348.465ZM588.623 332.082L608.985 322.917L610.909 327.192L590.547 336.357L588.623 332.082Z" fill="white"/>
<path d="M661.014 315.998L665.692 330.62L660.565 332.483L657.044 322.79L654.16 323.838L652.443 319.112L661.014 315.998ZM627.886 333.383L612.986 292.37L617.712 290.653L630.953 327.1L652.101 319.417L638.86 282.97L643.586 281.253L658.486 322.266L627.886 333.383Z" fill="white"/>
<path d="M663.221 275.253L675.825 317.029L670.766 318.556L658.162 276.779L663.221 275.253Z" fill="white"/>
<path d="M713.496 307.075L708.37 308.358L698.915 270.574L689.903 272.829C687.615 273.402 685.864 274.213 684.648 275.264C683.429 276.302 682.661 277.533 682.344 278.96C682.027 280.386 682.081 281.947 682.505 283.642C682.929 285.337 683.605 286.72 684.532 287.791C685.469 288.845 686.71 289.53 688.253 289.847C689.81 290.16 691.719 290.034 693.979 289.468L705.388 286.613L706.547 291.243L694.972 294.139C691.693 294.96 688.862 295.09 686.482 294.529C684.098 293.954 682.154 292.83 680.652 291.156C679.149 289.482 678.086 287.398 677.462 284.904C676.838 282.41 676.791 280.057 677.321 277.845C677.851 275.633 679.037 273.703 680.88 272.056C682.719 270.395 685.292 269.151 688.6 268.323L702.903 264.744L713.496 307.075ZM688.812 293.045L694.599 291.597L689.106 313.178L683.153 314.668L688.812 293.045Z" fill="white"/>
<path d="M737.484 302.327L730.957 259.181L745.536 256.976C748.921 256.464 751.78 256.656 754.113 257.553C756.459 258.433 758.308 259.827 759.659 261.735C761.011 263.642 761.879 265.867 762.264 268.409C762.648 270.951 762.478 273.34 761.753 275.576C761.043 277.81 759.706 279.707 757.744 281.268C755.78 282.815 753.12 283.842 749.763 284.35L739.314 285.931L738.613 281.296L748.894 279.741C751.211 279.39 753.011 278.708 754.295 277.696C755.578 276.683 756.433 275.447 756.859 273.989C757.296 272.515 757.385 270.914 757.123 269.187C756.862 267.459 756.305 265.963 755.453 264.698C754.615 263.432 753.428 262.519 751.893 261.962C750.355 261.39 748.414 261.281 746.068 261.636L736.883 263.025L742.709 301.536L737.484 302.327Z" fill="white"/>
<path d="M776.964 297.464L776.546 292.539L779.264 292.308C780.311 292.219 781.171 291.94 781.844 291.469C782.531 290.998 783.08 290.416 783.492 289.726C783.918 289.034 784.257 288.321 784.508 287.587L785.051 285.916L767.196 253.901L772.886 253.419L787.15 279.408L795.815 251.474L801.419 250.998L789.478 288.705C788.999 290.114 788.427 291.431 787.761 292.657C787.109 293.881 786.162 294.902 784.92 295.72C783.692 296.537 781.974 297.039 779.766 297.227L776.964 297.464Z" fill="white"/>
<path d="M836.7 293.822L821.318 274.085L815.949 274.188L816.334 294.213L811.051 294.315L810.213 250.686L815.496 250.585L815.859 269.502L818.16 269.457L835.265 250.205L841.571 250.084L824.3 269.595L843.005 293.701L836.7 293.822Z" fill="white"/>
<path d="M886.461 274.06C886.215 278.656 885.173 282.583 883.334 285.842C881.495 289.1 879.08 291.56 876.089 293.221C873.099 294.881 869.745 295.612 866.029 295.413C862.312 295.214 859.056 294.129 856.26 292.159C853.463 290.188 851.325 287.485 849.845 284.049C848.364 280.612 847.747 276.596 847.993 272.001C848.239 267.405 849.282 263.478 851.121 260.219C852.959 256.961 855.374 254.501 858.365 252.84C861.356 251.18 864.709 250.449 868.426 250.648C872.142 250.847 875.398 251.931 878.195 253.902C880.991 255.872 883.129 258.576 884.61 262.012C886.09 265.449 886.707 269.465 886.461 274.06ZM881.355 273.787C881.557 270.014 881.096 266.796 879.973 264.132C878.863 261.47 877.274 259.415 875.203 257.967C873.147 256.519 870.8 255.725 868.161 255.584C865.523 255.443 863.097 255.981 860.884 257.2C858.685 258.419 856.885 260.293 855.484 262.821C854.096 265.35 853.302 268.501 853.1 272.274C852.898 276.047 853.351 279.265 854.461 281.927C855.584 284.591 857.174 286.646 859.23 288.093C861.3 289.541 863.655 290.336 866.293 290.477C868.931 290.618 871.35 290.079 873.549 288.86C875.762 287.641 877.562 285.767 878.95 283.239C880.351 280.71 881.153 277.56 881.355 273.787Z" fill="white"/>
<path d="M930.803 257.705L925.145 300.973L919.906 300.288L924.956 261.667L903.153 258.816L898.103 297.436L892.863 296.751L898.522 253.483L930.803 257.705Z" fill="white"/>
<path d="M936.615 303.124L931.189 302.005L955.691 262.502L961.033 263.603L967.917 309.576L962.491 308.458L957.136 269.848L956.802 269.78L936.615 303.124ZM942.059 286.842L963.929 291.35L962.983 295.941L941.113 291.433L942.059 286.842Z" fill="white"/>
<path d="M985.977 269.034L991.037 270.554L979.881 307.693L994.574 312.107L1005.73 274.968L1010.79 276.488L999.634 313.627L1014.33 318.04L1025.48 280.901L1030.54 282.422L1017.99 324.213L973.423 310.826L985.977 269.034Z" fill="white"/>
<path d="M1026.94 327.646L1043.17 287.142L1048.08 289.108L1040.85 307.145L1062.45 315.801L1069.68 297.764L1074.58 299.73L1058.35 340.234L1053.44 338.268L1060.7 320.152L1039.11 311.496L1031.84 329.612L1026.94 327.646Z" fill="white"/>
<path d="M1109.69 340.907C1107.64 345.031 1105.13 348.225 1102.16 350.491C1099.18 352.756 1095.99 354.06 1092.58 354.402C1089.18 354.744 1085.81 354.088 1082.48 352.435C1079.14 350.782 1076.58 348.498 1074.79 345.582C1073 342.666 1072.11 339.337 1072.11 335.596C1072.11 331.854 1073.13 327.921 1075.17 323.798C1077.22 319.675 1079.73 316.48 1082.71 314.215C1085.68 311.949 1088.87 310.646 1092.28 310.304C1095.68 309.962 1099.05 310.617 1102.39 312.27C1105.72 313.923 1108.28 316.207 1110.07 319.123C1111.86 322.039 1112.75 325.368 1112.75 329.11C1112.75 332.851 1111.73 336.784 1109.69 340.907ZM1105.11 338.636C1106.78 335.251 1107.63 332.113 1107.66 329.222C1107.69 326.338 1107.04 323.822 1105.72 321.673C1104.4 319.53 1102.56 317.872 1100.19 316.699C1097.82 315.525 1095.38 315.06 1092.87 315.304C1090.37 315.554 1087.97 316.563 1085.68 318.33C1083.41 320.104 1081.43 322.684 1079.75 326.069C1078.08 329.454 1077.22 332.589 1077.19 335.473C1077.16 338.364 1077.81 340.88 1079.13 343.023C1080.46 345.172 1082.3 346.833 1084.67 348.006C1087.04 349.18 1089.47 349.642 1091.97 349.392C1094.49 349.148 1096.88 348.139 1099.16 346.365C1101.45 344.598 1103.43 342.021 1105.11 338.636Z" fill="white"/>
<path d="M1151.37 339.983L1149.01 344.031L1130.83 333.416L1111.19 367.052L1106.63 364.387L1128.63 326.704L1151.37 339.983Z" fill="white"/>
<path d="M1178.15 384.283C1175.54 388.078 1172.61 390.889 1169.34 392.714C1166.08 394.538 1162.73 395.381 1159.32 395.242C1155.9 395.103 1152.65 393.981 1149.58 391.876C1146.52 389.772 1144.3 387.15 1142.94 384.012C1141.58 380.874 1141.16 377.452 1141.68 373.748C1142.21 370.043 1143.77 366.293 1146.38 362.497C1148.98 358.702 1151.91 355.891 1155.18 354.067C1158.45 352.242 1161.79 351.399 1165.21 351.538C1168.62 351.677 1171.87 352.799 1174.94 354.904C1178.01 357.008 1180.22 359.63 1181.58 362.768C1182.95 365.906 1183.36 369.328 1182.84 373.032C1182.31 376.737 1180.75 380.487 1178.15 384.283ZM1173.93 381.391C1176.07 378.275 1177.35 375.287 1177.78 372.429C1178.21 369.578 1177.93 366.995 1176.91 364.681C1175.91 362.375 1174.32 360.475 1172.14 358.981C1169.96 357.487 1167.61 356.684 1165.09 356.572C1162.57 356.468 1160.06 357.131 1157.55 358.56C1155.05 359.997 1152.73 362.273 1150.59 365.389C1148.46 368.505 1147.17 371.489 1146.73 374.34C1146.3 377.198 1146.59 379.781 1147.59 382.087C1148.61 384.401 1150.2 386.305 1152.38 387.799C1154.56 389.294 1156.91 390.093 1159.42 390.196C1161.94 390.308 1164.45 389.646 1166.95 388.209C1169.47 386.78 1171.79 384.507 1173.93 381.391Z" fill="white"/>
<path d="M1183.19 415.859L1211.33 382.514L1231.46 399.5L1228.44 403.082L1212.35 389.504L1203.55 399.924L1212.02 407.071C1214.41 409.087 1216.09 411.177 1217.07 413.342C1218.06 415.516 1218.38 417.671 1218.03 419.808C1217.68 421.954 1216.7 423.993 1215.07 425.925C1213.44 427.857 1211.57 429.199 1209.46 429.952C1207.37 430.713 1205.15 430.816 1202.79 430.259C1200.45 429.711 1198.08 428.429 1195.69 426.414L1183.19 415.859ZM1190.2 415.75L1198.66 422.897C1200.18 424.18 1201.72 424.961 1203.29 425.242C1204.88 425.522 1206.35 425.407 1207.71 424.899C1209.08 424.39 1210.23 423.592 1211.15 422.506C1212.49 420.911 1213.04 419.02 1212.79 416.834C1212.54 414.637 1211.28 412.577 1209 410.653L1200.53 403.506L1190.2 415.75Z" fill="white"/>
<path d="M1255.55 452.641C1252.32 455.919 1248.94 458.168 1245.4 459.388C1241.86 460.609 1238.43 460.85 1235.09 460.11C1231.75 459.371 1228.75 457.695 1226.1 455.082C1223.45 452.47 1221.73 449.499 1220.94 446.17C1220.16 442.841 1220.35 439.399 1221.52 435.845C1222.69 432.291 1224.89 428.875 1228.12 425.598C1231.35 422.32 1234.73 420.071 1238.27 418.85C1241.81 417.63 1245.25 417.389 1248.59 418.128C1251.93 418.868 1254.92 420.544 1257.57 423.156C1260.22 425.769 1261.94 428.74 1262.73 432.069C1263.52 435.398 1263.32 438.84 1262.15 442.394C1260.98 445.948 1258.78 449.363 1255.55 452.641ZM1251.91 449.051C1254.56 446.36 1256.35 443.646 1257.28 440.907C1258.21 438.178 1258.38 435.585 1257.79 433.129C1257.21 430.682 1255.98 428.532 1254.1 426.677C1252.22 424.822 1250.05 423.617 1247.58 423.062C1245.13 422.517 1242.54 422.727 1239.81 423.691C1237.1 424.664 1234.41 426.497 1231.76 429.187C1229.11 431.878 1227.31 434.588 1226.38 437.317C1225.46 440.055 1225.28 442.648 1225.86 445.095C1226.45 447.551 1227.69 449.707 1229.57 451.562C1231.45 453.417 1233.62 454.616 1236.08 455.161C1238.54 455.716 1241.13 455.507 1243.84 454.533C1246.57 453.569 1249.26 451.742 1251.91 449.051Z" fill="white"/>
<path d="M1282.01 449.188L1248.74 477.431L1245.32 473.403L1278.59 445.16L1282.01 449.188ZM1273.04 469.301L1269.46 472.335L1260.82 462.151L1264.39 459.117L1273.04 469.301ZM1295.49 498.783C1291.99 501.761 1288.42 503.702 1284.79 504.605C1281.15 505.507 1277.71 505.443 1274.45 504.411C1271.19 503.379 1268.35 501.444 1265.94 498.607C1263.53 495.77 1262.08 492.659 1261.59 489.273C1261.1 485.887 1261.6 482.476 1263.08 479.04C1264.56 475.603 1267.05 472.395 1270.56 469.417C1274.07 466.438 1277.64 464.497 1281.27 463.594C1284.9 462.692 1288.35 462.756 1291.61 463.789C1294.87 464.821 1297.71 466.755 1300.11 469.592C1302.52 472.429 1303.97 475.541 1304.46 478.926C1304.95 482.312 1304.46 485.723 1302.98 489.16C1301.5 492.596 1299 495.804 1295.49 498.783ZM1292.18 494.884C1295.07 492.439 1297.09 489.893 1298.25 487.247C1299.42 484.612 1299.82 482.045 1299.45 479.545C1299.09 477.057 1298.06 474.806 1296.35 472.792C1294.64 470.778 1292.58 469.385 1290.17 468.614C1287.78 467.854 1285.18 467.834 1282.38 468.552C1279.59 469.282 1276.75 470.869 1273.87 473.315C1270.99 475.76 1268.96 478.301 1267.79 480.936C1266.63 483.582 1266.23 486.149 1266.59 488.638C1266.96 491.137 1268 493.393 1269.71 495.408C1271.42 497.422 1273.47 498.809 1275.87 499.569C1278.28 500.34 1280.87 500.36 1283.66 499.631C1286.46 498.912 1289.3 497.33 1292.18 494.884Z" fill="white"/>
<path d="M488.123 1072.41L515.958 1067.23L518.651 1071.17L483.648 1077.95L481.339 1074.57L500.523 1044.64L503.167 1048.51L488.123 1072.41ZM502.254 1047.17L475.233 1065.64L472.396 1061.48L499.417 1043.02L502.254 1047.17ZM489.754 1086.89L516.775 1068.42L519.612 1072.57L492.591 1091.04L489.754 1086.89Z" fill="white"/>
<path d="M499.763 1100.33C499.111 1099.5 498.847 1098.56 498.971 1097.5C499.095 1096.44 499.569 1095.59 500.394 1094.94C501.219 1094.29 502.16 1094.02 503.217 1094.15C504.275 1094.27 505.129 1094.74 505.781 1095.57C506.433 1096.39 506.697 1097.34 506.573 1098.39C506.449 1099.45 505.975 1100.3 505.15 1100.96C504.604 1101.39 503.992 1101.64 503.315 1101.73C502.647 1101.82 501.993 1101.75 501.353 1101.51C500.733 1101.28 500.203 1100.88 499.763 1100.33Z" fill="white"/>
<path d="M536.031 1140.41L540.009 1115.71L536.278 1111.85L521.876 1125.76L518.204 1121.96L549.582 1091.64L553.254 1095.44L539.649 1108.59L541.248 1110.24L566.995 1109.66L571.377 1114.19L545.328 1114.83L540.413 1144.95L536.031 1140.41Z" fill="white"/>
<path d="M536.494 1157.86L566.005 1123.89L569.673 1127.07L566.263 1131L566.714 1131.39C567.365 1131.2 568.226 1130.99 569.297 1130.75C570.388 1130.51 571.628 1130.54 573.017 1130.82C574.427 1131.11 575.936 1131.95 577.544 1133.34C579.625 1135.15 581.007 1137.26 581.69 1139.68C582.374 1142.1 582.331 1144.65 581.563 1147.33C580.795 1150.02 579.284 1152.66 577.03 1155.25C574.757 1157.87 572.342 1159.75 569.784 1160.89C567.236 1162.03 564.717 1162.44 562.228 1162.12C559.748 1161.79 557.478 1160.73 555.42 1158.94C553.832 1157.57 552.79 1156.2 552.292 1154.84C551.803 1153.48 551.595 1152.23 551.667 1151.11C551.749 1149.98 551.846 1149.07 551.958 1148.37L551.636 1148.09L540.29 1161.16L536.494 1157.86ZM559.006 1139.48C557.385 1141.35 556.228 1143.23 555.536 1145.13C554.854 1147.02 554.688 1148.83 555.041 1150.54C555.402 1152.25 556.344 1153.76 557.867 1155.09C559.454 1156.47 561.142 1157.2 562.93 1157.28C564.738 1157.37 566.53 1156.93 568.305 1155.97C570.1 1155.01 571.762 1153.65 573.289 1151.89C574.798 1150.15 575.89 1148.35 576.565 1146.49C577.26 1144.63 577.425 1142.83 577.061 1141.08C576.717 1139.33 575.74 1137.76 574.132 1136.36C572.587 1135.02 570.95 1134.29 569.219 1134.16C567.497 1134.02 565.763 1134.41 564.016 1135.34C562.278 1136.26 560.608 1137.64 559.006 1139.48Z" fill="white"/>
<path d="M583.045 1180.83C580.655 1179.09 578.973 1177 577.996 1174.55C577.031 1172.11 576.787 1169.5 577.263 1166.72C577.751 1163.94 578.989 1161.19 580.978 1158.46C582.983 1155.7 585.233 1153.66 587.728 1152.33C590.235 1151.01 592.797 1150.43 595.417 1150.6C598.047 1150.77 600.557 1151.73 602.947 1153.46C605.336 1155.2 607.013 1157.29 607.978 1159.73C608.954 1162.18 609.195 1164.8 608.698 1167.58C608.214 1170.37 606.969 1173.15 604.964 1175.9C602.975 1178.64 600.732 1180.66 598.234 1181.97C595.747 1183.29 593.188 1183.86 590.558 1183.68C587.938 1183.52 585.434 1182.57 583.045 1180.83ZM585.702 1177.17C587.517 1178.49 589.349 1179.12 591.197 1179.04C593.046 1178.96 594.803 1178.37 596.468 1177.26C598.134 1176.15 599.61 1174.71 600.897 1172.95C602.184 1171.18 603.101 1169.32 603.65 1167.39C604.198 1165.45 604.229 1163.58 603.742 1161.79C603.256 1159.99 602.105 1158.44 600.29 1157.12C598.475 1155.8 596.639 1155.18 594.782 1155.27C592.925 1155.36 591.16 1155.97 589.486 1157.08C587.811 1158.2 586.331 1159.65 585.044 1161.42C583.758 1163.18 582.844 1165.03 582.304 1166.96C581.764 1168.88 581.742 1170.74 582.237 1172.52C582.732 1174.3 583.887 1175.85 585.702 1177.17Z" fill="white"/>
<path d="M601.51 1192.92L618.532 1164.97L640.516 1178.36L623.494 1206.31L619.199 1203.69L633.783 1179.74L620.389 1171.59L605.805 1195.54L601.51 1192.92Z" fill="white"/>
<path d="M638.803 1206.07L664.26 1190.54L669.438 1193.14L654.737 1222.38L650.245 1220.12L661.615 1197.51L636.234 1213.08L630.98 1210.44L645.681 1181.2L650.173 1183.46L638.803 1206.07Z" fill="white"/>
<path d="M662.873 1225.97L675.173 1195.65L687.573 1200.67C690.838 1202 693.132 1203.79 694.456 1206.04C695.779 1208.29 695.95 1210.63 694.968 1213.05C694.22 1214.9 693.095 1216.1 691.591 1216.67C690.093 1217.23 688.416 1217.34 686.561 1217C687.616 1217.61 688.542 1218.45 689.338 1219.51C690.148 1220.57 690.678 1221.8 690.927 1223.19C691.182 1224.56 690.986 1226.05 690.34 1227.64C689.71 1229.19 688.752 1230.42 687.465 1231.33C686.179 1232.23 684.655 1232.74 682.892 1232.85C681.13 1232.96 679.222 1232.6 677.168 1231.77L662.873 1225.97ZM669.026 1223.5L678.898 1227.51C680.504 1228.16 681.916 1228.29 683.134 1227.89C684.352 1227.5 685.227 1226.64 685.761 1225.32C686.397 1223.76 686.442 1222.34 685.896 1221.08C685.357 1219.8 684.284 1218.84 682.678 1218.19L672.805 1214.18L669.026 1223.5ZM674.439 1210.15L682.416 1213.39C683.666 1213.9 684.809 1214.16 685.842 1214.18C686.882 1214.19 687.769 1213.97 688.505 1213.51C689.259 1213.05 689.817 1212.38 690.18 1211.48C690.698 1210.2 690.571 1208.99 689.798 1207.83C689.031 1206.66 687.713 1205.7 685.843 1204.94L677.867 1201.7L674.439 1210.15Z" fill="white"/>
<path d="M720.665 1227.03L719.257 1231.5L702.024 1226.07L703.432 1221.6L720.665 1227.03ZM708.795 1208.55L698.962 1239.76L694.166 1238.25L703.999 1207.04L708.795 1208.55ZM728.548 1214.77L718.716 1245.99L713.919 1244.48L723.752 1213.26L728.548 1214.77Z" fill="white"/>
<path d="M733.517 1242.08L754.538 1220.93L760.187 1222.22L752.879 1254.13L747.977 1253L753.63 1228.33L732.692 1249.5L726.959 1248.19L734.268 1216.29L739.169 1217.41L733.517 1242.08Z" fill="white"/>
<path d="M791.689 1226.88L787.833 1254.65L792.392 1255.28L790.294 1270.39L785.313 1269.7L786.766 1259.23L761.694 1255.75L766.194 1223.34L771.175 1224.03L767.319 1251.8L782.852 1253.96L786.708 1226.18L791.689 1226.88Z" fill="white"/>
<path d="M805.269 1239.91L814.631 1240.42C818.46 1240.62 821.337 1241.75 823.26 1243.81C825.183 1245.86 826.064 1248.37 825.903 1251.35C825.797 1253.31 825.247 1255.07 824.253 1256.62C823.259 1258.16 821.857 1259.36 820.047 1260.21C818.238 1261.05 816.057 1261.4 813.503 1261.27L799.802 1260.53L801.569 1227.85L806.59 1228.12L805.076 1256.12L813.756 1256.59C815.742 1256.69 817.402 1256.26 818.735 1255.28C820.068 1254.3 820.779 1252.98 820.868 1251.34C820.962 1249.61 820.4 1248.16 819.182 1247C817.965 1245.84 816.363 1245.2 814.378 1245.1L805.016 1244.59L805.269 1239.91Z" fill="white"/>
<path d="M833.207 1261.94L832.452 1229.22L837.479 1229.1L837.807 1243.33L841.13 1243.25L852.56 1228.75L859.035 1228.6L846.192 1244.67L859.961 1261.32L853.485 1261.47L842.431 1247.91L837.915 1248.02L838.234 1261.82L833.207 1261.94Z" fill="white"/>
<path d="M869.789 1252.95L882.931 1226.18L888.697 1225.6L891.988 1258.16L886.985 1258.67L884.44 1233.48L871.383 1260.24L865.532 1260.84L862.241 1228.27L867.244 1227.77L869.789 1252.95Z" fill="white"/>
<path d="M904.335 1248.6L915.133 1220.8L920.828 1219.73L926.899 1251.89L921.958 1252.82L917.262 1227.95L906.548 1255.73L900.769 1256.82L894.699 1224.66L899.64 1223.73L904.335 1248.6ZM909.844 1210.7L914.45 1209.83C914.877 1212.09 914.444 1214.09 913.152 1215.82C911.86 1217.55 909.874 1218.67 907.194 1219.18C904.556 1219.68 902.32 1219.35 900.485 1218.21C898.664 1217.07 897.541 1215.36 897.114 1213.1L901.72 1212.23C901.926 1213.32 902.406 1214.22 903.162 1214.93C903.931 1215.64 905.049 1215.85 906.515 1215.58C907.98 1215.3 908.949 1214.69 909.422 1213.75C909.909 1212.81 910.049 1211.79 909.844 1210.7Z" fill="white"/>
</svg>
